<?xml version="1.0" standalone="no"?><!DOCTYPE svg PUBLIC "-//W3C//DTD SVG 1.1//EN" "http://www.w3.org/Graphics/SVG/1.1/DTD/svg11.dtd"><svg t="1788250092260" class="icon" viewBox="0 0 1024 1024" version="1.1" xmlns="http://www.w3.org/2000/svg" p-id="1864" xmlns:xlink="http://www.w3.org/1999/xlink" width="200" height="200"><path d="M5.025027 5.728531h1013.949946v1013.949946H5.025027z" fill="#111514" p-id="1865"></path><path d="M487.159617 419.824255h60.434324v599.117218h-60.434324z" fill="#111514" p-id="1866"></path><path d="M547.727942 1024h-60.300324a5.025027 5.025027 0 0 1-5.025027-5.025027V419.824255a5.058527 5.058527 0 0 1 5.025027-5.025027h60.300324a5.025027 5.025027 0 0 1 5.025027 5.025027v599.150718a5.025027 5.025027 0 0 1-5.025027 5.025027z m-55.409298-10.050054h50.25027V424.849282h-50.25027z" fill="#F5F3EE" p-id="1867"></path><path d="M517.376779 350.780384m-81.572938 0a81.572938 81.572938 0 1 0 163.145876 0 81.572938 81.572938 0 1 0-163.145876 0Z" fill="#111514" p-id="1868"></path><path d="M517.376779 437.378349a86.597965 86.597965 0 1 1 86.631465-86.597965 86.698466 86.698466 0 0 1-86.631465 86.597965z m0-163.145876a76.547911 76.547911 0 1 0 76.581411 76.547911 76.648412 76.648412 0 0 0-76.581411-76.547911z" fill="#F5F3EE" p-id="1869"></path><path d="M517.376779 269.207446V5.025027" fill="#111514" p-id="1870"></path><path d="M517.376779 274.232473a5.058527 5.058527 0 0 1-5.025027-5.025027V5.025027a5.025027 5.025027 0 0 1 10.050054 0v264.182419a5.025027 5.025027 0 0 1-5.025027 5.025027z" fill="#F5F3EE" p-id="1871"></path><path d="M555.901986 844.137534l89.37848 173.530932" fill="#111514" p-id="1872"></path><path d="M645.280466 1022.693493a5.058527 5.058527 0 0 1-4.489024-2.713515l-89.34498-173.530932a5.025027 5.025027 0 1 1 8.944548-4.589524l89.34498 173.497432a5.025027 5.025027 0 0 1-2.177512 6.700036 4.690025 4.690025 0 0 1-2.278012 0.636503z" fill="#F5F3EE" p-id="1873"></path><path d="M478.851572 844.137534l-89.34498 173.530932" fill="#111514" p-id="1874"></path><path d="M389.506592 1022.693493a4.690025 4.690025 0 0 1-2.278012-0.569503 5.025027 5.025027 0 0 1-2.177512-6.700036l89.34498-173.497432a5.025027 5.025027 0 0 1 8.944548 4.589525l-89.34498 173.530932a5.058527 5.058527 0 0 1-4.489024 2.646514z" fill="#F5F3EE" p-id="1875"></path><path d="M489.538129 969.763209h55.7108" fill="#111514" p-id="1876"></path><path d="M545.215428 974.855236h-55.677299a5.025027 5.025027 0 0 1 0-10.050054h55.677299a5.025027 5.025027 0 0 1 0 10.050054z" fill="#F5F3EE" p-id="1877"></path><path d="M491.48114 917.971931h51.824778" fill="#111514" p-id="1878"></path><path d="M543.305918 922.996958h-51.824778a5.025027 5.025027 0 0 1 0-10.050054h51.824778a5.025027 5.025027 0 0 1 0 10.050054z" fill="#F5F3EE" p-id="1879"></path><path d="M487.159617 672.583113h60.434324" fill="#111514" p-id="1880"></path><path d="M547.727942 677.574639h-60.300324a5.025027 5.025027 0 1 1 0-10.050054h60.300324a5.025027 5.025027 0 1 1 0 10.050054z" fill="#F5F3EE" p-id="1881"></path><path d="M489.538129 621.428338h55.7108" fill="#111514" p-id="1882"></path><path d="M545.215428 626.453365h-55.677299a5.025027 5.025027 0 0 1 0-10.050054h55.677299a5.025027 5.025027 0 0 1 0 10.050054z" fill="#F5F3EE" p-id="1883"></path><path d="M491.48114 574.796087h51.824778" fill="#111514" p-id="1884"></path><path d="M543.305918 579.821114h-51.824778a5.025027 5.025027 0 0 1 0-10.050054h51.824778a5.025027 5.025027 0 0 1 0 10.050054z" fill="#F5F3EE" p-id="1885"></path><path d="M488.901626 523.641313h56.983806" fill="#111514" p-id="1886"></path><path d="M545.885432 528.66634h-56.950306a5.025027 5.025027 0 0 1 0-10.050054h56.950306a5.025027 5.025027 0 0 1 0 10.050054z" fill="#F5F3EE" p-id="1887"></path><path d="M489.538129 472.486538h55.7108" fill="#111514" p-id="1888"></path><path d="M545.215428 477.511565h-55.677299a5.025027 5.025027 0 0 1 0-10.050054h55.677299a5.025027 5.025027 0 0 1 0 10.050054z" fill="#F5F3EE" p-id="1889"></path><path d="M590.708673 386.391075a81.606438 81.606438 0 1 0-146.630288 0z" fill="#111514" p-id="1890"></path><path d="M590.708673 391.416102h-146.630288a5.025027 5.025027 0 0 1-4.522524-2.847515 85.525959 85.525959 0 0 1-8.777047-37.788203 86.631465 86.631465 0 0 1 173.22943 0 85.525959 85.525959 0 0 1-8.777047 37.821703 5.025027 5.025027 0 0 1-4.522524 2.814015z m-143.414271-10.050054h140.198253a75.509406 75.509406 0 0 0 6.465535-30.585664 76.581411 76.581411 0 0 0-153.129322 0 75.509406 75.509406 0 0 0 6.398534 30.585664z" fill="#F5F3EE" p-id="1891"></path><path d="M517.376779 793.652763m-81.572938 0a81.572938 81.572938 0 1 0 163.145876 0 81.572938 81.572938 0 1 0-163.145876 0Z" fill="#111514" p-id="1892"></path><path d="M517.376779 880.250728a86.631465 86.631465 0 1 1 86.631465-86.597965 86.698466 86.698466 0 0 1-86.631465 86.597965z m0-163.179377a76.581411 76.581411 0 1 0 76.581411 76.581412 76.648412 76.648412 0 0 0-76.581411-76.581412z" fill="#F5F3EE" p-id="1893"></path><path d="M517.376779 175.942945m-31.088167 0a31.088167 31.088167 0 1 0 62.176334 0 31.088167 31.088167 0 1 0-62.176334 0Z" fill="#111514" p-id="1894"></path><path d="M517.376779 212.056139a36.113194 36.113194 0 1 1 36.113194-36.113194 36.113194 36.113194 0 0 1-36.113194 36.113194z m0-62.142834a26.06314 26.06314 0 1 0 26.06314 26.02964 26.06314 26.06314 0 0 0-26.06314-26.02964z" fill="#F5F3EE" p-id="1895"></path><path d="M446.657899 766.082115h140.164753" fill="#111514" p-id="1896"></path><path d="M586.822652 771.107142h-140.164753a5.025027 5.025027 0 1 1 0-10.050054h140.164753a5.025027 5.025027 0 1 1 0 10.050054z" fill="#F5F3EE" p-id="1897"></path><path d="M588.129159 821.189911h-141.47126" fill="#111514" p-id="1898"></path><path d="M588.129159 826.214938h-141.47126a5.025027 5.025027 0 0 1 0-10.050054h141.47126a5.025027 5.025027 0 0 1 0 10.050054z" fill="#F5F3EE" p-id="1899"></path></svg>